<svg width="33px" height="41px" viewBox="0 0 33 41" version="1.1" xmlns="http://www.w3.org/2000/svg">
	<defs>
		<linearGradient x1="80.2%" y1="18.6689669%" x2="0%" y2="81.3310331%" id="linearGradient-1">
			<stop stop-color="#5344E6" offset="0%"></stop>
			<stop stop-color="#2CD6C7" offset="100%"></stop>
		</linearGradient>
	</defs>
	<g stroke="none" stroke-width="1" fill="none" fill-rule="evenodd">
		<g fill="url(#linearGradient-1)" fill-rule="nonzero">
			<path d="M0.38,0.54 L0.38,9.47 C0.38,10.17 0.95,10.72 1.65,10.72 L7.63,10.72 C7.73,10.72 7.85,10.67 7.93,10.59 C8.33,10.19 8.55,9.76 8.38,9.09 C8.17070723,8.11256734 8.63740213,7.11527255 9.52195661,6.64971756 C10.4065111,6.18416257 11.4928004,6.36409723 12.18,7.09 L12.78,7.78 C13.41,8.41 14.24,8.7 15.13,8.89 L18.83,9.57 C19.8,9.74 20.69,10.06 20.8,11.57 C20.82,11.91 21.19,12.02 21.44,12.09 L27.13,13.9 C27.42,14 27.63,14.28 27.63,14.58 C27.63,16.15 27.5,17.8 25.64,18.49 C24.62,18.86 21.81,19.24 19.28,19.76 L19.16,19.79 C18.82,19.89 17.77,20.19 16.35,20.76 C12.93,22.12 7.33,24.96 3.75,29.98 C1.53286076,33.0663524 0.359191842,36.780051 0.4,40.58 L11.17,40.58 L11.17,29.97 L18.01,29.97 C25.8787049,29.6146188 32.0754137,23.131726 32.0754137,15.255 C32.0754137,7.37827403 25.8787049,0.895381158 18.01,0.54 L0.38,0.54 Z"></path>
		</g>
	</g>
</svg>